<svg width="32" height="32" viewBox="0 0 32 32" fill="none" xmlns="http://www.w3.org/2000/svg">
<path fill-rule="evenodd" clip-rule="evenodd" d="M22.2526 6.47824C24.3132 5.61966 26.3804 7.68688 25.5218 9.74747L19.5983 23.9639C18.4398 26.7442 14.365 26.2743 13.8699 23.3033L13.1308 18.8692L8.69676 18.1302C5.72577 17.635 5.25584 13.5602 8.03611 12.4018L22.2526 6.47824ZM23.6756 8.97824C23.8473 8.56612 23.4339 8.15268 23.0218 8.32439L8.80534 14.2479C7.87858 14.6341 8.03523 15.9923 9.02556 16.1574L13.4596 16.8964C14.3026 17.0369 14.9631 17.6974 15.1036 18.5404L15.8426 22.9745C16.0077 23.9648 17.366 24.1214 17.7521 23.1947L23.6756 8.97824Z" fill="#B1B5C4"/>
</svg>
