<svg width="17" height="16" viewBox="0 0 17 16" fill="none" xmlns="http://www.w3.org/2000/svg">
<path d="M8.50016 1.33337C8.13197 1.33337 7.8335 1.63185 7.8335 2.00004V4.00004C7.8335 4.36823 8.13197 4.66671 8.50016 4.66671C8.86835 4.66671 9.16683 4.36823 9.16683 4.00004V2.00004C9.16683 1.63185 8.86835 1.33337 8.50016 1.33337Z" fill="#23262F"/>
<path d="M8.50016 11.3334C8.13197 11.3334 7.8335 11.6319 7.8335 12V14C7.8335 14.3682 8.13197 14.6667 8.50016 14.6667C8.86835 14.6667 9.16683 14.3682 9.16683 14V12C9.16683 11.6319 8.86835 11.3334 8.50016 11.3334Z" fill="#23262F"/>
<path d="M14.5002 7.33337C14.8684 7.33337 15.1668 7.63185 15.1668 8.00004C15.1668 8.36823 14.8684 8.66671 14.5002 8.66671H12.5002C12.132 8.66671 11.8335 8.36823 11.8335 8.00004C11.8335 7.63185 12.132 7.33337 12.5002 7.33337H14.5002Z" fill="#23262F"/>
<path d="M5.16683 8.00004C5.16683 7.63185 4.86835 7.33337 4.50016 7.33337H2.50016C2.13197 7.33337 1.8335 7.63185 1.8335 8.00004C1.8335 8.36823 2.13197 8.66671 2.50016 8.66671H4.50016C4.86835 8.66671 5.16683 8.36823 5.16683 8.00004Z" fill="#23262F"/>
<path d="M12.2714 3.28606C12.5318 3.02571 12.9539 3.02571 13.2142 3.28606C13.4746 3.54641 13.4746 3.96852 13.2142 4.22887L11.8 5.64308C11.5397 5.90343 11.1176 5.90343 10.8572 5.64308C10.5969 5.38273 10.5969 4.96062 10.8572 4.70027L12.2714 3.28606Z" fill="#23262F"/>
<path d="M6.14312 10.357C5.88277 10.0967 5.46066 10.0967 5.20031 10.357L3.78609 11.7712C3.52574 12.0316 3.52574 12.4537 3.78609 12.714C4.04644 12.9744 4.46855 12.9744 4.7289 12.714L6.14312 11.2998C6.40347 11.0395 6.40347 10.6174 6.14312 10.357Z" fill="#23262F"/>
<path d="M13.2142 11.7713C13.4746 12.0317 13.4746 12.4538 13.2142 12.7141C12.9539 12.9745 12.5318 12.9745 12.2714 12.7141L10.8572 11.2999C10.5969 11.0396 10.5969 10.6174 10.8572 10.3571C11.1176 10.0967 11.5397 10.0967 11.8 10.3571L13.2142 11.7713Z" fill="#23262F"/>
<path d="M6.14318 5.64299C6.40353 5.38265 6.40353 4.96054 6.14318 4.70019L4.72897 3.28597C4.46862 3.02562 4.04651 3.02562 3.78616 3.28597C3.52581 3.54632 3.52581 3.96843 3.78616 4.22878L5.20037 5.64299C5.46072 5.90334 5.88283 5.90334 6.14318 5.64299Z" fill="#23262F"/>
</svg>
