<svg width="24" height="24" viewBox="0 0 24 24" fill="none" xmlns="http://www.w3.org/2000/svg">
<path fill-rule="evenodd" clip-rule="evenodd" d="M18.2527 2.47824C20.3133 1.61966 22.3806 3.68688 21.522 5.74747L15.5985 19.9639C14.44 22.7442 10.3652 22.2743 9.87004 19.3033L9.13103 14.8692L4.69694 14.1302C1.72596 13.635 1.25602 9.56021 4.0363 8.40176L18.2527 2.47824ZM19.6758 4.97824C19.8475 4.56612 19.4341 4.15268 19.022 4.32439L4.80553 10.2479C3.87877 10.6341 4.03541 11.9923 5.02574 12.1574L9.45982 12.8964C10.3028 13.0369 10.9633 13.6974 11.1038 14.5404L11.8428 18.9745C12.0079 19.9648 13.3661 20.1214 13.7523 19.1947L19.6758 4.97824Z" fill="#777E91"/>
</svg>
