<svg width="21" height="20" viewBox="0 0 21 20" fill="none" xmlns="http://www.w3.org/2000/svg">
<path fill-rule="evenodd" clip-rule="evenodd" d="M10.5 16.6667C14.1819 16.6667 17.1666 13.682 17.1666 10.0001C17.1666 6.31818 14.1819 3.33341 10.5 3.33341C6.81806 3.33341 3.83329 6.31818 3.83329 10.0001C3.83329 13.682 6.81806 16.6667 10.5 16.6667ZM10.5 18.3334C15.1023 18.3334 18.8333 14.6024 18.8333 10.0001C18.8333 5.39771 15.1023 1.66675 10.5 1.66675C5.89758 1.66675 2.16663 5.39771 2.16663 10.0001C2.16663 14.6024 5.89758 18.3334 10.5 18.3334Z" fill="#777E91"/>
<path d="M10.5 8.33325C10.5 7.87302 10.873 7.49992 11.3333 7.49992H12.1666C12.6269 7.49992 13 7.12683 13 6.66659C13 6.20635 12.6269 5.83325 12.1666 5.83325H11.3333C9.95254 5.83325 8.83329 6.95254 8.83329 8.33325V9.99992H7.99996C7.53973 9.99992 7.16663 10.373 7.16663 10.8333C7.16663 11.2935 7.53972 11.6666 7.99996 11.6666H8.83329V16.6666C8.83329 17.1268 9.20638 17.4999 9.66663 17.4999C10.1269 17.4999 10.5 17.1268 10.5 16.6666V11.6666H12.1666C12.6269 11.6666 13 11.2935 13 10.8333C13 10.373 12.6269 9.99992 12.1666 9.99992H10.5V8.33325Z" fill="#777E91"/>
</svg>
