<svg width="20" height="20" viewBox="0 0 20 20" fill="none" xmlns="http://www.w3.org/2000/svg">
<g clip-path="url(#clip0_87_5094)">
<path fill-rule="evenodd" clip-rule="evenodd" d="M13.3333 7.50016L15.975 4.41815C16.9017 3.33703 16.1335 1.66683 14.7096 1.66683L3.33331 1.66683L3.33331 13.3335L14.7096 13.3335C16.1335 13.3335 16.9017 11.6633 15.975 10.5822L13.3333 7.50016ZM4.99998 11.6668L14.7096 11.6668L11.1382 7.50016L14.7096 3.3335L4.99998 3.3335L4.99998 11.6668Z" fill="#777E91"/>
<path d="M3.33331 0.833334C3.33331 0.373096 3.70641 0 4.16665 0C4.62688 0 4.99998 0.373096 4.99998 0.833333L4.99998 19.1667C4.99998 19.6269 4.62688 20 4.16665 20C3.70641 20 3.33331 19.6269 3.33331 19.1667L3.33331 0.833334Z" fill="#777E91"/>
</g>
<defs>
<clipPath id="clip0_87_5094">
<rect width="20" height="20" fill="white"/>
</clipPath>
</defs>
</svg>
