<svg width="13" height="12" viewBox="0 0 13 12" fill="none" xmlns="http://www.w3.org/2000/svg">
<g clip-path="url(#clip0_96_4180)">
<path fill-rule="evenodd" clip-rule="evenodd" d="M8.5 4.5L10.085 2.65079C10.641 2.00212 10.1801 1 9.32578 1L2.5 1L2.5 8L9.32578 8C10.1801 8 10.641 6.99788 10.085 6.34921L8.5 4.5ZM3.5 7L9.32578 7L7.18292 4.5L9.32578 2L3.5 2L3.5 7Z" fill="#777E91"/>
<path d="M2.5 0.5C2.5 0.223858 2.72386 0 3 0C3.27614 0 3.5 0.223858 3.5 0.5L3.5 11.5C3.5 11.7761 3.27614 12 3 12C2.72386 12 2.5 11.7761 2.5 11.5L2.5 0.5Z" fill="#777E91"/>
</g>
<defs>
<clipPath id="clip0_96_4180">
<rect width="12" height="12" fill="white" transform="translate(0.5)"/>
</clipPath>
</defs>
</svg>
