<svg width="20" height="20" viewBox="0 0 20 20" fill="none" xmlns="http://www.w3.org/2000/svg">
<path fill-rule="evenodd" clip-rule="evenodd" d="M9.99305 3.47604L10 3.47242L10.0073 3.4762L13.7185 5.70292L15 6.47502V15.6667C15 16.161 14.9987 16.4314 14.9828 16.6257L14.9809 16.6477L14.959 16.6496C14.7647 16.6655 14.4942 16.6667 14 16.6667H6.00002C5.50581 16.6667 5.23539 16.6655 5.04108 16.6496L5.0191 16.6477L5.01719 16.6257C5.00132 16.4314 5.00002 16.161 5.00002 15.6667V6.47504L6.27683 5.70577L9.99305 3.47604ZM5.4181 4.27736L1.23796 6.78544C0.843315 7.02223 0.715344 7.53411 0.952134 7.92876C1.18892 8.32341 1.70081 8.45138 2.09546 8.21459L3.33335 7.47186V15.6667C3.33335 16.6002 3.33335 17.0669 3.51501 17.4234C3.6748 17.737 3.92977 17.992 4.24337 18.1518C4.59989 18.3334 5.0666 18.3334 6.00002 18.3334H14C14.9334 18.3334 15.4002 18.3334 15.7567 18.1518C16.0703 17.992 16.3252 17.737 16.485 17.4234C16.6667 17.0669 16.6667 16.6002 16.6667 15.6667V7.47183L17.9046 8.21459C18.2993 8.45138 18.8112 8.32341 19.048 7.92876C19.2847 7.53411 19.1568 7.02223 18.7621 6.78544L14.5772 4.27448L11.3762 2.34591C11.1435 2.20569 10.9649 2.09809 10.8135 2.01718C10.7782 1.99742 10.7423 1.97904 10.706 1.96205C10.58 1.90058 10.4709 1.85967 10.3587 1.83495C10.1224 1.78288 9.87763 1.78288 9.64135 1.83495C9.52888 1.85973 9.41943 1.9008 9.29305 1.96253C9.25738 1.97925 9.22216 1.9973 9.18747 2.01668C9.03591 2.09764 8.85706 2.2054 8.62386 2.34591L5.4181 4.27736Z" fill="#777E91"/>
<path fill-rule="evenodd" clip-rule="evenodd" d="M10.8333 16.6668V13.3335C10.8333 12.8733 10.4602 12.5002 10 12.5002C9.53976 12.5002 9.16667 12.8733 9.16667 13.3335V16.6668H10.8333ZM10 10.8335C8.61929 10.8335 7.5 11.9528 7.5 13.3335V18.3335H12.5V13.3335C12.5 11.9528 11.3807 10.8335 10 10.8335Z" fill="#777E91"/>
</svg>
