<svg width="21" height="20" viewBox="0 0 21 20" fill="none" xmlns="http://www.w3.org/2000/svg">
<path fill-rule="evenodd" clip-rule="evenodd" d="M13.8333 3.33341H7.16663C5.32568 3.33341 3.83329 4.8258 3.83329 6.66675V13.3334C3.83329 15.1743 5.32568 16.6667 7.16663 16.6667H13.8333C15.6742 16.6667 17.1666 15.1743 17.1666 13.3334V6.66675C17.1666 4.8258 15.6742 3.33341 13.8333 3.33341ZM7.16663 1.66675C4.4052 1.66675 2.16663 3.90532 2.16663 6.66675V13.3334C2.16663 16.0948 4.4052 18.3334 7.16663 18.3334H13.8333C16.5947 18.3334 18.8333 16.0948 18.8333 13.3334V6.66675C18.8333 3.90532 16.5947 1.66675 13.8333 1.66675H7.16663Z" fill="#777E91"/>
<path d="M14.6667 6.66667C15.127 6.66667 15.5 6.29357 15.5 5.83333C15.5 5.3731 15.127 5 14.6667 5C14.2065 5 13.8334 5.3731 13.8334 5.83333C13.8334 6.29357 14.2065 6.66667 14.6667 6.66667Z" fill="#777E91"/>
<path fill-rule="evenodd" clip-rule="evenodd" d="M14.6667 9.99992C14.6667 12.3011 12.8012 14.1666 10.5 14.1666C8.19886 14.1666 6.33337 12.3011 6.33337 9.99992C6.33337 7.69874 8.19886 5.83325 10.5 5.83325C12.8012 5.83325 14.6667 7.69874 14.6667 9.99992ZM13 9.99992C13 11.3807 11.8808 12.4999 10.5 12.4999C9.11929 12.4999 8.00004 11.3807 8.00004 9.99992C8.00004 8.61917 9.11929 7.49992 10.5 7.49992C11.8808 7.49992 13 8.61917 13 9.99992Z" fill="#777E91"/>
</svg>
