<svg width="17" height="16" viewBox="0 0 17 16" fill="none" xmlns="http://www.w3.org/2000/svg">
<path fill-rule="evenodd" clip-rule="evenodd" d="M12.3281 5.33333H4.67187C3.90277 5.33333 3.29316 5.98224 3.34113 6.74984L3.67447 12.0832C3.71839 12.7859 4.30112 13.3333 5.0052 13.3333H11.9948C12.6989 13.3333 13.2816 12.7859 13.3255 12.0832L13.6589 6.74984C13.7068 5.98224 13.0972 5.33333 12.3281 5.33333ZM4.67187 4C3.13368 4 1.91445 5.29781 2.0104 6.83301L2.34373 12.1663C2.43157 13.5718 3.59703 14.6667 5.0052 14.6667H11.9948C13.403 14.6667 14.5684 13.5718 14.6563 12.1663L14.9896 6.83301C15.0856 5.29781 13.8663 4 12.3281 4H4.67187Z" fill="#FCFCFD"/>
<path fill-rule="evenodd" clip-rule="evenodd" d="M5.16666 4.66683C5.16666 2.82588 6.65904 1.3335 8.49999 1.3335C10.3409 1.3335 11.8333 2.82588 11.8333 4.66683V6.00016C11.8333 6.36835 11.5348 6.66683 11.1667 6.66683C10.7985 6.66683 10.5 6.36835 10.5 6.00016V4.66683C10.5 3.56226 9.60456 2.66683 8.49999 2.66683C7.39542 2.66683 6.49999 3.56226 6.49999 4.66683V6.00016C6.49999 6.36835 6.20151 6.66683 5.83332 6.66683C5.46513 6.66683 5.16666 6.36835 5.16666 6.00016V4.66683Z" fill="#FCFCFD"/>
</svg>
