<svg width="24" height="24" viewBox="0 0 24 24" fill="none" xmlns="http://www.w3.org/2000/svg">
<path d="M11.0818 3.12771C11.4292 2.32266 12.5708 2.32266 12.9182 3.12771L15.0982 8.1796C15.2453 8.52048 15.5691 8.75181 15.9393 8.78042L21.53 9.21241C22.4269 9.28172 22.7833 10.4078 22.0896 10.9806L17.8852 14.4518C17.5886 14.6967 17.4588 15.0899 17.5512 15.4632L18.8451 20.6916C19.0579 21.5514 18.1304 22.2429 17.3671 21.7935L12.5073 18.9326C12.1942 18.7482 11.8058 18.7482 11.4927 18.9326L6.63294 21.7935C5.86964 22.2429 4.94211 21.5514 5.1549 20.6916L6.44884 15.4632C6.54123 15.0899 6.41136 14.6967 6.1148 14.4518L1.91041 10.9806C1.21665 10.4078 1.57306 9.28172 2.47004 9.21241L8.06069 8.78042C8.43086 8.75181 8.75471 8.52048 8.90181 8.1796L11.0818 3.12771Z" fill="#FFD166"/>
</svg>
