<svg width="14" height="14" viewBox="0 0 14 14" fill="none" xmlns="http://www.w3.org/2000/svg">
<path d="M6.38789 1.08514C6.61949 0.548442 7.3805 0.548442 7.6121 1.08514L9.06545 4.45307C9.16352 4.68032 9.37942 4.83454 9.6262 4.85361L13.3533 5.14161C13.9513 5.18781 14.1889 5.93852 13.7264 6.32038L10.9235 8.63456C10.7258 8.79779 10.6392 9.05994 10.7008 9.30881L11.5634 12.7944C11.7053 13.3676 11.0869 13.8286 10.578 13.529L7.33821 11.6217C7.12947 11.4988 6.87051 11.4988 6.66178 11.6217L3.42195 13.529C2.91309 13.8286 2.29474 13.3676 2.4366 12.7944L3.29922 9.30881C3.36081 9.05994 3.27423 8.79779 3.07653 8.63456L0.273603 6.32038C-0.188903 5.93852 0.0487003 5.18781 0.646692 5.14161L4.37379 4.85361C4.62057 4.83454 4.83647 4.68032 4.93454 4.45307L6.38789 1.08514Z" fill="#FFD166"/>
</svg>
