<svg width="21" height="20" viewBox="0 0 21 20" fill="none" xmlns="http://www.w3.org/2000/svg">
<path fill-rule="evenodd" clip-rule="evenodd" d="M8.43538 7.44467C8.35119 7.64632 8.16135 7.784 7.94352 7.80139L3.9858 8.11745C3.46795 8.15881 3.25841 8.80547 3.6536 9.14268L6.66562 11.7128C6.83247 11.8552 6.90535 12.0791 6.85428 12.2924L5.93347 16.1376C5.81269 16.642 6.3609 17.0414 6.80397 16.7718L10.1968 14.7075C10.3831 14.5942 10.617 14.5942 10.8032 14.7075L14.1961 16.7718C14.6391 17.0414 15.1873 16.642 15.0666 16.1376L14.1457 12.2924C14.0947 12.0791 14.1676 11.8552 14.3344 11.7128L17.3464 9.14268C17.7416 8.80547 17.5321 8.15881 17.0142 8.11745L13.0565 7.80139C12.8387 7.784 12.6488 7.64632 12.5646 7.44467L11.0383 3.78915C10.8387 3.31106 10.1613 3.31106 9.96172 3.78916L8.43538 7.44467ZM13.848 6.19263L12.5763 3.14698C11.8063 1.30289 9.19372 1.3029 8.42373 3.14698L7.15205 6.19263L3.85312 6.45607C1.85569 6.61559 1.04748 9.10987 2.57177 10.4105L5.07885 12.5498L4.31263 15.7495C3.84676 17.695 5.96128 19.2355 7.67027 18.1957L10.5 16.474L13.3298 18.1957C15.0387 19.2355 17.1533 17.695 16.6874 15.7495L15.9212 12.5498L18.4283 10.4105C19.9526 9.10986 19.1443 6.61559 17.1469 6.45607L13.848 6.19263Z" fill="#777E91"/>
</svg>
