<svg width="21" height="20" viewBox="0 0 21 20" fill="none" xmlns="http://www.w3.org/2000/svg">
<path fill-rule="evenodd" clip-rule="evenodd" d="M3.15067 11.6665C1.77257 11.6704 0.882969 13.2403 1.73197 14.4298C2.94782 16.133 5.15261 17.5 8.83346 17.5C14.5377 17.5 19.1165 12.8514 18.4755 7.35925L19.4146 5.48108C20.0659 4.17857 18.9342 2.69685 17.5062 2.98245L16.2655 3.23057C15.9366 3.05702 15.5962 2.92606 15.3053 2.83117C14.7383 2.64627 14.052 2.5 13.4168 2.5C12.2757 2.5 11.2909 2.79276 10.5082 3.37994C9.73446 3.96053 9.29863 4.72354 9.05946 5.42421C8.94921 5.74717 8.87579 6.07112 8.82868 6.38203C8.38596 6.24269 7.93453 6.05522 7.49258 5.82629C6.48992 5.30693 5.67912 4.64852 5.22175 4.07126C4.45439 3.10275 2.82819 3.17456 2.25754 4.43351C1.45326 6.20789 1.67388 8.31122 2.39683 10.0108C2.63915 10.5803 2.95436 11.1434 3.33945 11.6652C3.27352 11.666 3.21046 11.6663 3.15067 11.6665ZM8.83337 15.8333C5.61392 15.8333 3.9492 14.6672 3.08841 13.4614C3.04973 13.4072 3.08873 13.3333 3.15529 13.3332C4.03099 13.3307 5.82849 13.2892 7.01399 12.5954C7.0753 12.5595 7.06181 12.4691 6.99447 12.4465C4.231 11.5173 2.66014 7.58216 3.77546 5.12158C3.80103 5.06517 3.87687 5.05772 3.91534 5.10628C5.1894 6.71432 7.97507 8.28933 10.3987 8.33242C10.4513 8.33333 10.491 8.28558 10.483 8.23361C10.3854 7.60044 10.0125 4.16667 13.4167 4.16667C14.2296 4.16667 15.4391 4.56319 15.8846 4.96942C15.9052 4.98819 15.9331 4.99672 15.9605 4.99125L17.833 4.61675C17.901 4.60315 17.9549 4.67371 17.9239 4.73573L16.7625 7.05849C16.7544 7.07462 16.7519 7.09312 16.755 7.11088C17.5684 11.6833 13.8234 15.8333 8.83337 15.8333Z" fill="#777E91"/>
</svg>
