<svg width="160" height="160" viewBox="0 0 160 160" fill="none" xmlns="http://www.w3.org/2000/svg">
<path d="M80 140C113.137 140 140 113.137 140 80C140 46.8629 113.137 20 80 20C46.8629 20 20 46.8629 20 80C20 113.137 46.8629 140 80 140Z" fill="url(#paint0_linear_37_319)"/>
<path fill-rule="evenodd" clip-rule="evenodd" d="M46.7163 30.0707C49.2465 28.3806 51.9124 26.8778 54.6942 25.582H86.7681L46.7163 30.0707Z" fill="url(#paint1_linear_37_319)"/>
<path fill-rule="evenodd" clip-rule="evenodd" d="M96.8296 39.8843C96.3669 39.8843 88.6405 40.2035 73.6504 40.8419L109.356 44.1264C101.468 41.2983 97.2924 39.8843 96.8296 39.8843Z" fill="url(#paint2_linear_37_319)"/>
<path fill-rule="evenodd" clip-rule="evenodd" d="M74.0534 60.0414L96.04 25.3711L101.938 28.528H108.45L136.294 63.252L100.475 74.0372L72.0522 65.7834L74.0534 60.0414Z" fill="url(#paint3_linear_37_319)"/>
<path fill-rule="evenodd" clip-rule="evenodd" d="M87.625 68.4919L100.475 58.5063L97.3818 41.7492L105.888 34.7458L101.937 28.5278H108.45L136.294 63.2519L100.475 74.0371L87.625 68.4919Z" fill="url(#paint4_linear_37_319)"/>
<path fill-rule="evenodd" clip-rule="evenodd" d="M20.0014 79.5832C37.9728 62.7154 50.2285 52.4585 56.7688 48.8125L69.5812 49.3126L94.9307 72.8092L62.567 92.5983H21.3248C20.4568 88.5361 20 84.3215 20 80.0002C20 79.8611 20.0005 79.7221 20.0014 79.5832Z" fill="url(#paint5_linear_37_319)"/>
<path fill-rule="evenodd" clip-rule="evenodd" d="M21.3247 92.5982C21.1395 91.7315 20.973 90.8579 20.8257 89.9777L28.569 87.7962L56.6263 58.952L69.581 49.3125L94.9305 72.8091L62.5668 92.5982H21.3247Z" fill="url(#paint6_linear_37_319)"/>
<path fill-rule="evenodd" clip-rule="evenodd" d="M62.6909 71.2627H64.4298L64.6706 81.576H62.4502L62.6909 71.2627Z" fill="url(#paint7_linear_37_319)"/>
<path fill-rule="evenodd" clip-rule="evenodd" d="M57.3726 73.2914L63.3551 72.3628L69.9767 73.2914L68.6449 66.5318C65.1183 65.4878 63.3551 64.9658 63.3551 64.9658C63.3551 64.9658 61.7158 65.6413 58.4373 66.9922L57.3726 73.2914Z" fill="url(#paint8_linear_37_319)"/>
<path fill-rule="evenodd" clip-rule="evenodd" d="M69.2118 69.4103L68.9932 68.3013L66.0723 68.7385L69.2118 69.4103Z" fill="url(#paint9_linear_37_319)"/>
<path fill-rule="evenodd" clip-rule="evenodd" d="M57.3823 67.4718L63.4111 66.1784L69.8971 67.4718L68.9489 61.6125L63.4111 59.2681L58.3056 61.088L57.623 65.8076H58.3056L57.5347 66.4181L57.3823 67.4718Z" fill="url(#paint10_linear_37_319)"/>
<path fill-rule="evenodd" clip-rule="evenodd" d="M57.0303 61.7844L63.3542 60.4959L69.9141 61.7844L69.3174 59.2491L66.9303 58.6901H69.1858L63.4722 34.4146L59.9738 49.278H61.9789L59.6477 50.6636L57.0303 61.7844Z" fill="url(#paint11_linear_37_319)"/>
<path fill-rule="evenodd" clip-rule="evenodd" d="M23.7998 74.6001H25.5998V85.6001H23.7998V74.6001Z" fill="url(#paint12_linear_37_319)"/>
<path fill-rule="evenodd" clip-rule="evenodd" d="M26.4287 52.9507L31.4 77.8L24.4755 76.4295L20.0581 77.3364C20.4401 68.5918 22.6939 60.3329 26.4287 52.9507Z" fill="url(#paint13_linear_37_319)"/>
<path fill-rule="evenodd" clip-rule="evenodd" d="M47.7998 70.6001H49.5998V81.6001H47.7998V70.6001Z" fill="url(#paint14_linear_37_319)"/>
<path fill-rule="evenodd" clip-rule="evenodd" d="M41.7998 73.8L48.4753 72.4294L55.3998 73.8L48.4378 39L41.7998 73.8Z" fill="url(#paint15_linear_37_319)"/>
<path fill-rule="evenodd" clip-rule="evenodd" d="M20.3594 86.6055C26.8835 81.7811 36.5075 80.2037 49.2316 81.8733C75.2542 85.2878 81.5126 60.3491 109.54 60.3491C119.932 60.3491 127.603 57.2425 132.555 51.0293C137.299 59.6181 140 69.4938 140 80.0002C140 113.137 113.137 140 79.9999 140C49.0952 140 23.6478 116.635 20.3594 86.6055Z" fill="url(#paint16_linear_37_319)"/>
<path fill-rule="evenodd" clip-rule="evenodd" d="M21.354 92.7344C25.1839 90.5717 30.4568 91.4172 33.5555 92.9916C37.6132 95.0532 42.1169 94.8374 52.1504 91.2976C58.8394 88.9377 65.4497 91.623 71.9815 99.3533C64.8458 98.3523 60.0272 99.5953 57.5257 103.082C53.7733 108.313 48.7051 109.188 38.514 107.867C32.8734 107.136 30.0353 108.992 28.5524 110.891C25.2227 105.357 22.7605 99.2423 21.354 92.7344H21.354Z" fill="url(#paint17_linear_37_319)"/>
<path fill-rule="evenodd" clip-rule="evenodd" d="M130.119 71.8418C123.003 69.0371 117.181 69.0371 112.651 71.8418C108.121 74.6466 102.633 75.5034 96.1851 74.4125L97.267 83.1013L132.648 82.2587L130.119 71.8418Z" fill="url(#paint18_linear_37_319)"/>
<path fill-rule="evenodd" clip-rule="evenodd" d="M126.8 117.55C125.967 118.588 125.1 119.597 124.2 120.576V110H126.8V117.55Z" fill="url(#paint19_linear_37_319)"/>
<path fill-rule="evenodd" clip-rule="evenodd" d="M133.538 107.114C132.437 109.284 131.208 111.378 129.861 113.385L125.224 112.47L115.8 114.4L125.171 65.3999L133.538 107.114Z" fill="url(#paint20_linear_37_319)"/>
<path fill-rule="evenodd" clip-rule="evenodd" d="M82.8002 139.936C81.9382 139.975 81.0714 139.997 80.2002 140V132H82.8002V139.936Z" fill="url(#paint21_linear_37_319)"/>
<path fill-rule="evenodd" clip-rule="evenodd" d="M71.7998 136.4L81.224 134.47L90.9998 136.4L81.1711 87.3999L71.7998 136.4Z" fill="url(#paint22_linear_37_319)"/>
<path fill-rule="evenodd" clip-rule="evenodd" d="M50.6 132.316C50.0615 132.012 49.5281 131.701 49 131.382V128.6H50.6V132.316Z" fill="url(#paint23_linear_37_319)"/>
<path fill-rule="evenodd" clip-rule="evenodd" d="M44.2188 128.168L49.652 99.8003L55.9998 131.4L49.6862 130.156L47.6866 130.565C46.5016 129.806 45.345 129.006 44.2188 128.168H44.2188Z" fill="url(#paint24_linear_37_319)"/>
<path fill-rule="evenodd" clip-rule="evenodd" d="M136.945 98.9546C135.941 101.972 134.704 104.882 133.255 107.665V94.3857H136.945V98.9546V98.9546Z" fill="url(#paint25_linear_37_319)"/>
<path fill-rule="evenodd" clip-rule="evenodd" d="M139.762 85.3842C139.418 89.2486 138.708 93.0077 137.666 96.6264L134.759 96.2178L124.819 97.7642L126.588 87.2743L134.759 83.8999L139.762 85.3842Z" fill="url(#paint26_linear_37_319)"/>
<path fill-rule="evenodd" clip-rule="evenodd" d="M139.903 76.5538C139.967 77.6943 140 78.8433 140 80C140 82.3231 139.868 84.6154 139.611 86.8697L134.853 85.9187L124.835 88.0725L125.089 86.3178L126.37 85.3011H125.235L126.37 77.4418L134.853 74.4111L139.903 76.5538Z" fill="url(#paint27_linear_37_319)"/>
<path fill-rule="evenodd" clip-rule="evenodd" d="M131.252 48.7866C136.392 57.2084 139.514 66.9961 139.948 77.478L134.758 76.4563L124.25 78.6019L128.599 60.0829L132.472 57.7756H129.141L131.252 48.7866Z" fill="url(#paint28_linear_37_319)"/>
<path fill-rule="evenodd" clip-rule="evenodd" d="M115.942 128.048C115.171 128.626 114.385 129.186 113.585 129.727V120.806H115.942V128.048Z" fill="url(#paint29_linear_37_319)"/>
<path fill-rule="evenodd" clip-rule="evenodd" d="M108.195 122.964L114.546 121.976L121.575 122.964L120.161 115.774C116.418 114.664 114.546 114.109 114.546 114.109C114.546 114.109 112.806 114.827 109.326 116.264L108.195 122.964Z" fill="url(#paint30_linear_37_319)"/>
<path fill-rule="evenodd" clip-rule="evenodd" d="M120.763 118.835L120.531 117.656L117.431 118.121L120.763 118.835Z" fill="url(#paint31_linear_37_319)"/>
<path fill-rule="evenodd" clip-rule="evenodd" d="M108.206 116.774L114.606 115.398L121.491 116.774L120.484 110.542L114.606 108.048L109.186 109.984L108.462 115.003H109.186L108.368 115.653L108.206 116.774Z" fill="url(#paint32_linear_37_319)"/>
<path fill-rule="evenodd" clip-rule="evenodd" d="M107.832 110.725L114.545 109.355L121.509 110.725L120.875 108.029L118.341 107.434H120.736L114.67 81.6157L110.957 97.4239H113.085L110.611 98.8975L107.832 110.725Z" fill="url(#paint33_linear_37_319)"/>
<path fill-rule="evenodd" clip-rule="evenodd" d="M38.3438 123.183L40.025 122.58L44.7108 124.577L45.4293 129.046C42.9184 127.273 40.5498 125.312 38.3438 123.183Z" fill="url(#paint34_linear_37_319)"/>
<path fill-rule="evenodd" clip-rule="evenodd" d="M35.6367 120.398L36.84 115.252L38.8126 114.072H37.116L40.0761 101.413L44.9107 122.088H43.0022L45.0221 122.564L45.527 124.723L39.9763 123.626L39.0167 123.823C37.8451 122.727 36.7174 121.584 35.6367 120.398Z" fill="url(#paint35_linear_37_319)"/>
<path fill-rule="evenodd" clip-rule="evenodd" d="M60.5999 136.794C59.86 136.542 59.1265 136.275 58.3999 135.994V130H60.5999V136.794Z" fill="url(#paint36_linear_37_319)"/>
<path fill-rule="evenodd" clip-rule="evenodd" d="M53.6001 131.8L59.3908 130.908L65.8001 131.8L64.511 125.305C61.0975 124.302 59.3908 123.8 59.3908 123.8C59.3908 123.8 57.8041 124.449 54.6307 125.747L53.6001 131.8Z" fill="url(#paint37_linear_37_319)"/>
<path fill-rule="evenodd" clip-rule="evenodd" d="M65 128L64.7912 127L62 127.394L65 128Z" fill="url(#paint38_linear_37_319)"/>
<path fill-rule="evenodd" clip-rule="evenodd" d="M53.6001 126.4L59.4772 125.139L65.8001 126.4L64.8757 120.686L59.4772 118.4L54.5002 120.175L53.8347 124.777H54.5002L53.7487 125.372L53.6001 126.4Z" fill="url(#paint39_linear_37_319)"/>
<path fill-rule="evenodd" clip-rule="evenodd" d="M53.2002 120.8L59.2867 119.548L65.6002 120.8L65.0259 118.336L62.7285 117.793H64.8993L59.4002 94.2002L56.0332 108.646H57.963L55.7194 109.992L53.2002 120.8Z" fill="url(#paint40_linear_37_319)"/>
<path fill-rule="evenodd" clip-rule="evenodd" d="M98.3445 137.144C97.1311 137.533 95.9009 137.885 94.6553 138.198V126.786H98.3445V137.144Z" fill="url(#paint41_linear_37_319)"/>
<path fill-rule="evenodd" clip-rule="evenodd" d="M86.2192 130.165L96.1594 128.618L107.161 130.165L104.949 118.908C99.0892 117.17 96.1594 116.3 96.1594 116.3C96.1594 116.3 93.4357 117.425 87.9884 119.675L86.2192 130.165Z" fill="url(#paint42_linear_37_319)"/>
<path fill-rule="evenodd" clip-rule="evenodd" d="M105.891 123.701L105.528 121.854L100.674 122.582L105.891 123.701Z" fill="url(#paint43_linear_37_319)"/>
<path fill-rule="evenodd" clip-rule="evenodd" d="M86.2358 120.472L96.2529 118.319L107.03 120.472L105.454 110.715L96.2529 106.811L87.77 109.842L86.6358 117.701H87.77L86.4891 118.718L86.2358 120.472Z" fill="url(#paint44_linear_37_319)"/>
<path fill-rule="evenodd" clip-rule="evenodd" d="M85.6499 111.002L96.1574 108.856L107.057 111.002L106.065 106.78L102.099 105.849H105.847L96.3534 65.4243L90.5407 90.1758H93.8723L89.9989 92.4831L85.6499 111.002Z" fill="url(#paint45_linear_37_319)"/>
<path fill-rule="evenodd" clip-rule="evenodd" d="M34.6554 68.1855H37.5446L37.8514 81.2777C37.0491 81.3195 36.4045 81.3589 35.9177 81.3959C35.4308 81.4328 34.9122 81.4819 34.3618 81.5429L34.6554 68.1855Z" fill="url(#paint46_linear_37_319)"/>
<path fill-rule="evenodd" clip-rule="evenodd" d="M25.8188 71.5644L35.759 70.0181L46.7611 71.5644L44.5483 60.308C38.6888 58.5695 35.759 57.7002 35.759 57.7002C35.759 57.7002 33.0354 58.825 27.588 61.0746L25.8188 71.5644Z" fill="url(#paint47_linear_37_319)"/>
<path fill-rule="evenodd" clip-rule="evenodd" d="M45.4908 65.1008L45.1277 63.2539L40.2744 63.9821L45.4908 65.1008Z" fill="url(#paint48_linear_37_319)"/>
<path fill-rule="evenodd" clip-rule="evenodd" d="M25.8354 61.8728L35.8525 59.719L46.6293 61.8728L45.0537 52.1154L35.8525 48.2114L27.3696 51.2421L26.2354 59.1014H27.3696L26.0887 60.1181L25.8354 61.8728Z" fill="url(#paint49_linear_37_319)"/>
<path fill-rule="evenodd" clip-rule="evenodd" d="M25.25 52.402L35.7575 50.2563L46.657 52.402L45.6655 48.1801L41.6993 47.2491H45.4469L35.9535 6.82422L30.1408 31.5757H33.4724L29.599 33.883L25.25 52.402Z" fill="url(#paint50_linear_37_319)"/>
<path d="M74.7 80.4C75.0866 80.4 75.4 80.0866 75.4 79.7C75.4 79.3134 75.0866 79 74.7 79C74.3134 79 74 79.3134 74 79.7C74 80.0866 74.3134 80.4 74.7 80.4Z" fill="url(#paint51_linear_37_319)"/>
<path opacity="0.3" d="M32.7 28.4C33.0866 28.4 33.4 28.0866 33.4 27.7C33.4 27.3134 33.0866 27 32.7 27C32.3134 27 32 27.3134 32 27.7C32 28.0866 32.3134 28.4 32.7 28.4Z" fill="url(#paint52_linear_37_319)"/>
<path opacity="0.56" d="M86.7 58.4C87.0866 58.4 87.4 58.0866 87.4 57.7C87.4 57.3134 87.0866 57 86.7 57C86.3134 57 86 57.3134 86 57.7C86 58.0866 86.3134 58.4 86.7 58.4Z" fill="url(#paint53_linear_37_319)"/>
<path opacity="0.56" d="M127.7 73.0001C128.087 73.0001 128.4 72.6867 128.4 72.3001C128.4 71.9135 128.087 71.6001 127.7 71.6001C127.313 71.6001 127 71.9135 127 72.3001C127 72.6867 127.313 73.0001 127.7 73.0001Z" fill="url(#paint54_linear_37_319)"/>
<path d="M72.7 44.4C73.0866 44.4 73.4 44.0866 73.4 43.7C73.4 43.3134 73.0866 43 72.7 43C72.3134 43 72 43.3134 72 43.7C72 44.0866 72.3134 44.4 72.7 44.4Z" fill="url(#paint55_linear_37_319)"/>
<path opacity="0.8" d="M51.0999 53.0001C51.4865 53.0001 51.7999 52.6867 51.7999 52.3001C51.7999 51.9135 51.4865 51.6001 51.0999 51.6001C50.7133 51.6001 50.3999 51.9135 50.3999 52.3001C50.3999 52.6867 50.7133 53.0001 51.0999 53.0001Z" fill="url(#paint56_linear_37_319)"/>
<path opacity="0.8" d="M112.6 92.6001C113.152 92.6001 113.6 92.1524 113.6 91.6001C113.6 91.0478 113.152 90.6001 112.6 90.6001C112.048 90.6001 111.6 91.0478 111.6 91.6001C111.6 92.1524 112.048 92.6001 112.6 92.6001Z" fill="url(#paint57_linear_37_319)"/>
<path opacity="0.8" d="M100.3 119.6C100.576 119.6 100.8 119.376 100.8 119.1C100.8 118.824 100.576 118.6 100.3 118.6C100.024 118.6 99.7998 118.824 99.7998 119.1C99.7998 119.376 100.024 119.6 100.3 119.6Z" fill="url(#paint58_linear_37_319)"/>
<path opacity="0.3" d="M38.7002 107.8C38.9763 107.8 39.2002 107.576 39.2002 107.3C39.2002 107.024 38.9763 106.8 38.7002 106.8C38.4241 106.8 38.2002 107.024 38.2002 107.3C38.2002 107.576 38.4241 107.8 38.7002 107.8Z" fill="url(#paint59_linear_37_319)"/>
<path opacity="0.6" d="M77 110.8C77.5523 110.8 78 110.353 78 109.8C78 109.248 77.5523 108.8 77 108.8C76.4477 108.8 76 109.248 76 109.8C76 110.353 76.4477 110.8 77 110.8Z" fill="url(#paint60_linear_37_319)"/>
<path d="M48.7998 92.6001C49.3521 92.6001 49.7998 92.1524 49.7998 91.6001C49.7998 91.0478 49.3521 90.6001 48.7998 90.6001C48.2475 90.6001 47.7998 91.0478 47.7998 91.6001C47.7998 92.1524 48.2475 92.6001 48.7998 92.6001Z" fill="url(#paint61_linear_37_319)"/>
<path d="M54.8002 116.6C55.1316 116.6 55.4002 116.331 55.4002 116C55.4002 115.669 55.1316 115.4 54.8002 115.4C54.4688 115.4 54.2002 115.669 54.2002 116C54.2002 116.331 54.4688 116.6 54.8002 116.6Z" fill="url(#paint62_linear_37_319)"/>
<defs>
<linearGradient id="paint0_linear_37_319" x1="74.1709" y1="33.6988" x2="38.2026" y2="80" gradientUnits="userSpaceOnUse">
<stop stop-color="#C1FFF7"/>
<stop offset="1" stop-color="#93E9DE"/>
</linearGradient>
<linearGradient id="paint1_linear_37_319" x1="81.7217" y1="27.7731" x2="53.393" y2="31.9269" gradientUnits="userSpaceOnUse">
<stop stop-color="#C1FFF7"/>
<stop offset="1" stop-color="#93E9DE"/>
</linearGradient>
<linearGradient id="paint2_linear_37_319" x1="89.7687" y1="41.9822" x2="79.3077" y2="43.5822" gradientUnits="userSpaceOnUse">
<stop stop-color="#C1FFF7"/>
<stop offset="1" stop-color="#93E9DE"/>
</linearGradient>
<linearGradient id="paint3_linear_37_319" x1="106.036" y1="38.1559" x2="100.756" y2="67.9353" gradientUnits="userSpaceOnUse">
<stop stop-color="#77EBFF"/>
<stop offset="1" stop-color="#4D86DE"/>
</linearGradient>
<linearGradient id="paint4_linear_37_319" x1="113.409" y1="28.3811" x2="108.176" y2="73.9199" gradientUnits="userSpaceOnUse">
<stop stop-color="#77EBFF"/>
<stop offset="1" stop-color="#4D86DE"/>
</linearGradient>
<linearGradient id="paint5_linear_37_319" x1="59.6969" y1="62.1004" x2="56.358" y2="80.2566" gradientUnits="userSpaceOnUse">
<stop stop-color="#77EBFF"/>
<stop offset="1" stop-color="#4D86DE"/>
</linearGradient>
<linearGradient id="paint6_linear_37_319" x1="60.4092" y1="66.0906" x2="56.8494" y2="80.7489" gradientUnits="userSpaceOnUse">
<stop stop-color="#77EBFF"/>
<stop offset="1" stop-color="#4D86DE"/>
</linearGradient>
<linearGradient id="paint7_linear_37_319" x1="63.5604" y1="59.6433" x2="63.5604" y2="75.5035" gradientUnits="userSpaceOnUse">
<stop stop-color="#77EBFF"/>
<stop offset="1" stop-color="#4D86DE"/>
</linearGradient>
<linearGradient id="paint8_linear_37_319" x1="64.1782" y1="62.5927" x2="63.7823" y2="70.1171" gradientUnits="userSpaceOnUse">
<stop stop-color="#77EBFF"/>
<stop offset="1" stop-color="#4D86DE"/>
</linearGradient>
<linearGradient id="paint9_linear_37_319" x1="71.0847" y1="68.0702" x2="69.9473" y2="70.1856" gradientUnits="userSpaceOnUse">
<stop stop-color="#77EBFF"/>
<stop offset="1" stop-color="#4D86DE"/>
</linearGradient>
<linearGradient id="paint10_linear_37_319" x1="64.5688" y1="55.6707" x2="63.7454" y2="65.0588" gradientUnits="userSpaceOnUse">
<stop stop-color="#77EBFF"/>
<stop offset="1" stop-color="#4D86DE"/>
</linearGradient>
<linearGradient id="paint11_linear_37_319" x1="63.5572" y1="32.3473" x2="61.9789" y2="63.5495" gradientUnits="userSpaceOnUse">
<stop stop-color="#77EBFF"/>
<stop offset="1" stop-color="#4D86DE"/>
</linearGradient>
<linearGradient id="paint12_linear_37_319" x1="24.6998" y1="62.2071" x2="24.6998" y2="79.1232" gradientUnits="userSpaceOnUse">
<stop stop-color="#77EBFF"/>
<stop offset="1" stop-color="#4D86DE"/>
</linearGradient>
<linearGradient id="paint13_linear_37_319" x1="25.7994" y1="51.0738" x2="24.4099" y2="79.405" gradientUnits="userSpaceOnUse">
<stop stop-color="#77EBFF"/>
<stop offset="1" stop-color="#4D86DE"/>
</linearGradient>
<linearGradient id="paint14_linear_37_319" x1="48.6998" y1="58.2071" x2="48.6998" y2="75.1232" gradientUnits="userSpaceOnUse">
<stop stop-color="#77EBFF"/>
<stop offset="1" stop-color="#4D86DE"/>
</linearGradient>
<linearGradient id="paint15_linear_37_319" x1="48.6617" y1="36.3716" x2="46.9948" y2="76.0639" gradientUnits="userSpaceOnUse">
<stop stop-color="#77EBFF"/>
<stop offset="1" stop-color="#4D86DE"/>
</linearGradient>
<linearGradient id="paint16_linear_37_319" x1="123.501" y1="76.2572" x2="91.6046" y2="160.253" gradientUnits="userSpaceOnUse">
<stop stop-color="#91F6FF"/>
<stop offset="1" stop-color="#4D86DE"/>
</linearGradient>
<linearGradient id="paint17_linear_37_319" x1="43.9372" y1="100.68" x2="43.9372" y2="87.2907" gradientUnits="userSpaceOnUse">
<stop stop-color="#78CEF3" stop-opacity="0"/>
<stop offset="1" stop-color="#4D86DE"/>
</linearGradient>
<linearGradient id="paint18_linear_37_319" x1="112.475" y1="76.8315" x2="112.135" y2="74.4006" gradientUnits="userSpaceOnUse">
<stop stop-color="#91F6FF" stop-opacity="0"/>
<stop offset="1" stop-color="#4D86DE"/>
</linearGradient>
<linearGradient id="paint19_linear_37_319" x1="125.5" y1="98.0848" x2="125.5" y2="114.349" gradientUnits="userSpaceOnUse">
<stop stop-color="#77EBFF"/>
<stop offset="1" stop-color="#4D86DE"/>
</linearGradient>
<linearGradient id="paint20_linear_37_319" x1="124.738" y1="61.6989" x2="122.564" y2="117.598" gradientUnits="userSpaceOnUse">
<stop stop-color="#77EBFF"/>
<stop offset="1" stop-color="#4D86DE"/>
</linearGradient>
<linearGradient id="paint21_linear_37_319" x1="81.5002" y1="122.987" x2="81.5002" y2="135.289" gradientUnits="userSpaceOnUse">
<stop stop-color="#77EBFF"/>
<stop offset="1" stop-color="#4D86DE"/>
</linearGradient>
<linearGradient id="paint22_linear_37_319" x1="82.2981" y1="83.9346" x2="74.7817" y2="138.802" gradientUnits="userSpaceOnUse">
<stop stop-color="#7BD3F4"/>
<stop offset="1" stop-color="#4D86DE"/>
</linearGradient>
<linearGradient id="paint23_linear_37_319" x1="49.8" y1="124.414" x2="49.8" y2="130.128" gradientUnits="userSpaceOnUse">
<stop stop-color="#77EBFF"/>
<stop offset="1" stop-color="#4D86DE"/>
</linearGradient>
<linearGradient id="paint24_linear_37_319" x1="50.6082" y1="97.5655" x2="45.9905" y2="132.993" gradientUnits="userSpaceOnUse">
<stop stop-color="#7BD3F4"/>
<stop offset="1" stop-color="#4D86DE"/>
</linearGradient>
<linearGradient id="paint25_linear_37_319" x1="135.1" y1="79.4245" x2="135.1" y2="99.8462" gradientUnits="userSpaceOnUse">
<stop stop-color="#77EBFF"/>
<stop offset="1" stop-color="#4D86DE"/>
</linearGradient>
<linearGradient id="paint26_linear_37_319" x1="132.887" y1="69.3578" x2="131.964" y2="93.9975" gradientUnits="userSpaceOnUse">
<stop stop-color="#77EBFF"/>
<stop offset="1" stop-color="#4D86DE"/>
</linearGradient>
<linearGradient id="paint27_linear_37_319" x1="133.543" y1="57.0267" x2="131.676" y2="86.2848" gradientUnits="userSpaceOnUse">
<stop stop-color="#77EBFF"/>
<stop offset="1" stop-color="#4D86DE"/>
</linearGradient>
<linearGradient id="paint28_linear_37_319" x1="132.229" y1="46.5347" x2="130.306" y2="80.5138" gradientUnits="userSpaceOnUse">
<stop stop-color="#77EBFF"/>
<stop offset="1" stop-color="#4D86DE"/>
</linearGradient>
<linearGradient id="paint29_linear_37_319" x1="114.764" y1="110.755" x2="114.764" y2="124.474" gradientUnits="userSpaceOnUse">
<stop stop-color="#77EBFF"/>
<stop offset="1" stop-color="#4D86DE"/>
</linearGradient>
<linearGradient id="paint30_linear_37_319" x1="114.885" y1="109.105" x2="114.699" y2="119.567" gradientUnits="userSpaceOnUse">
<stop stop-color="#77EBFF"/>
<stop offset="1" stop-color="#4D86DE"/>
</linearGradient>
<linearGradient id="paint31_linear_37_319" x1="122.752" y1="117.407" x2="121.545" y2="119.655" gradientUnits="userSpaceOnUse">
<stop stop-color="#77EBFF"/>
<stop offset="1" stop-color="#4D86DE"/>
</linearGradient>
<linearGradient id="paint32_linear_37_319" x1="115.818" y1="99.6768" x2="114.952" y2="114.181" gradientUnits="userSpaceOnUse">
<stop stop-color="#77EBFF"/>
<stop offset="1" stop-color="#4D86DE"/>
</linearGradient>
<linearGradient id="paint33_linear_37_319" x1="114.76" y1="79.4171" x2="113.085" y2="112.603" gradientUnits="userSpaceOnUse">
<stop stop-color="#77EBFF"/>
<stop offset="1" stop-color="#4D86DE"/>
</linearGradient>
<linearGradient id="paint34_linear_37_319" x1="42.4034" y1="107.596" x2="41.5163" y2="128.256" gradientUnits="userSpaceOnUse">
<stop stop-color="#77EBFF"/>
<stop offset="1" stop-color="#4D86DE"/>
</linearGradient>
<linearGradient id="paint35_linear_37_319" x1="40.9195" y1="87.5061" x2="38.1363" y2="126.115" gradientUnits="userSpaceOnUse">
<stop stop-color="#77EBFF"/>
<stop offset="1" stop-color="#4D86DE"/>
</linearGradient>
<linearGradient id="paint36_linear_37_319" x1="59.4999" y1="122.345" x2="59.4999" y2="132.794" gradientUnits="userSpaceOnUse">
<stop stop-color="#77EBFF"/>
<stop offset="1" stop-color="#4D86DE"/>
</linearGradient>
<linearGradient id="paint37_linear_37_319" x1="59.7001" y1="119.435" x2="59.5333" y2="128.715" gradientUnits="userSpaceOnUse">
<stop stop-color="#77EBFF"/>
<stop offset="1" stop-color="#4D86DE"/>
</linearGradient>
<linearGradient id="paint38_linear_37_319" x1="66.7897" y1="126.869" x2="65.6761" y2="128.824" gradientUnits="userSpaceOnUse">
<stop stop-color="#77EBFF"/>
<stop offset="1" stop-color="#4D86DE"/>
</linearGradient>
<linearGradient id="paint39_linear_37_319" x1="60.5901" y1="110.761" x2="59.7979" y2="124.018" gradientUnits="userSpaceOnUse">
<stop stop-color="#77EBFF"/>
<stop offset="1" stop-color="#4D86DE"/>
</linearGradient>
<linearGradient id="paint40_linear_37_319" x1="59.9112" y1="78.3314" x2="56.4241" y2="122.36" gradientUnits="userSpaceOnUse">
<stop stop-color="#77EBFF"/>
<stop offset="1" stop-color="#4D86DE"/>
</linearGradient>
<linearGradient id="paint41_linear_37_319" x1="96.4999" y1="113.929" x2="96.4999" y2="131.478" gradientUnits="userSpaceOnUse">
<stop stop-color="#77EBFF"/>
<stop offset="1" stop-color="#4D86DE"/>
</linearGradient>
<linearGradient id="paint42_linear_37_319" x1="98.3881" y1="107.716" x2="97.3476" y2="124.921" gradientUnits="userSpaceOnUse">
<stop stop-color="#77EBFF"/>
<stop offset="1" stop-color="#4D86DE"/>
</linearGradient>
<linearGradient id="paint43_linear_37_319" x1="109.003" y1="121.463" x2="107.114" y2="124.983" gradientUnits="userSpaceOnUse">
<stop stop-color="#77EBFF"/>
<stop offset="1" stop-color="#4D86DE"/>
</linearGradient>
<linearGradient id="paint44_linear_37_319" x1="98.6867" y1="98.0761" x2="97.0904" y2="116.488" gradientUnits="userSpaceOnUse">
<stop stop-color="#77EBFF"/>
<stop offset="1" stop-color="#4D86DE"/>
</linearGradient>
<linearGradient id="paint45_linear_37_319" x1="96.494" y1="61.9818" x2="93.8715" y2="113.942" gradientUnits="userSpaceOnUse">
<stop stop-color="#77EBFF"/>
<stop offset="1" stop-color="#4D86DE"/>
</linearGradient>
<linearGradient id="paint46_linear_37_319" x1="36.1066" y1="53.1366" x2="36.1066" y2="73.678" gradientUnits="userSpaceOnUse">
<stop stop-color="#77EBFF"/>
<stop offset="1" stop-color="#4D86DE"/>
</linearGradient>
<linearGradient id="paint47_linear_37_319" x1="37.1267" y1="53.6996" x2="36.466" y2="66.2852" gradientUnits="userSpaceOnUse">
<stop stop-color="#77EBFF"/>
<stop offset="1" stop-color="#4D86DE"/>
</linearGradient>
<linearGradient id="paint48_linear_37_319" x1="48.6027" y1="62.8633" x2="46.7144" y2="66.3832" gradientUnits="userSpaceOnUse">
<stop stop-color="#77EBFF"/>
<stop offset="1" stop-color="#4D86DE"/>
</linearGradient>
<linearGradient id="paint49_linear_37_319" x1="37.7761" y1="42.1635" x2="36.4019" y2="57.8651" gradientUnits="userSpaceOnUse">
<stop stop-color="#77EBFF"/>
<stop offset="1" stop-color="#4D86DE"/>
</linearGradient>
<linearGradient id="paint50_linear_37_319" x1="36.0941" y1="3.38175" x2="33.4716" y2="55.3416" gradientUnits="userSpaceOnUse">
<stop stop-color="#77EBFF"/>
<stop offset="1" stop-color="#4D86DE"/>
</linearGradient>
<linearGradient id="paint51_linear_37_319" x1="74" y1="79.3051" x2="75.4" y2="80.4" gradientUnits="userSpaceOnUse">
<stop stop-color="#CBF1FF"/>
<stop offset="1" stop-color="#7BD2F4"/>
</linearGradient>
<linearGradient id="paint52_linear_37_319" x1="32" y1="27.3051" x2="33.4" y2="28.4" gradientUnits="userSpaceOnUse">
<stop stop-color="#CBF1FF"/>
<stop offset="1" stop-color="#7BD2F4"/>
</linearGradient>
<linearGradient id="paint53_linear_37_319" x1="86" y1="57.3051" x2="87.4" y2="58.4" gradientUnits="userSpaceOnUse">
<stop stop-color="#CBF1FF"/>
<stop offset="1" stop-color="#7BD2F4"/>
</linearGradient>
<linearGradient id="paint54_linear_37_319" x1="127" y1="71.9052" x2="128.4" y2="73.0001" gradientUnits="userSpaceOnUse">
<stop stop-color="#CBF1FF"/>
<stop offset="1" stop-color="#7BD2F4"/>
</linearGradient>
<linearGradient id="paint55_linear_37_319" x1="72" y1="43.3051" x2="74.5081" y2="45.5274" gradientUnits="userSpaceOnUse">
<stop stop-color="#E4FFFC"/>
<stop offset="1" stop-color="#B8FBF3"/>
</linearGradient>
<linearGradient id="paint56_linear_37_319" x1="50.3999" y1="51.9052" x2="52.908" y2="54.1275" gradientUnits="userSpaceOnUse">
<stop stop-color="#E4FFFC"/>
<stop offset="1" stop-color="#B8FBF3"/>
</linearGradient>
<linearGradient id="paint57_linear_37_319" x1="111.6" y1="91.036" x2="113.6" y2="92.6001" gradientUnits="userSpaceOnUse">
<stop stop-color="#CBF1FF"/>
<stop offset="1" stop-color="#7BD2F4"/>
</linearGradient>
<linearGradient id="paint58_linear_37_319" x1="99.7998" y1="118.818" x2="100.8" y2="119.6" gradientUnits="userSpaceOnUse">
<stop stop-color="#CBF1FF"/>
<stop offset="1" stop-color="#7BD2F4"/>
</linearGradient>
<linearGradient id="paint59_linear_37_319" x1="38.2002" y1="107.018" x2="39.2002" y2="107.8" gradientUnits="userSpaceOnUse">
<stop stop-color="#CBF1FF"/>
<stop offset="1" stop-color="#7BD2F4"/>
</linearGradient>
<linearGradient id="paint60_linear_37_319" x1="76" y1="109.236" x2="78" y2="110.8" gradientUnits="userSpaceOnUse">
<stop stop-color="#CBF1FF"/>
<stop offset="1" stop-color="#7BD2F4"/>
</linearGradient>
<linearGradient id="paint61_linear_37_319" x1="47.7998" y1="91.036" x2="49.7998" y2="92.6001" gradientUnits="userSpaceOnUse">
<stop stop-color="#CBF1FF"/>
<stop offset="1" stop-color="#7BD2F4"/>
</linearGradient>
<linearGradient id="paint62_linear_37_319" x1="54.2002" y1="115.661" x2="55.4002" y2="116.6" gradientUnits="userSpaceOnUse">
<stop stop-color="#CBF1FF"/>
<stop offset="1" stop-color="#7BD2F4"/>
</linearGradient>
</defs>
</svg>
