<svg width="160" height="160" viewBox="0 0 160 160" fill="none" xmlns="http://www.w3.org/2000/svg">
<path d="M80 140C113.137 140 140 113.137 140 80C140 46.8629 113.137 20 80 20C46.8629 20 20 46.8629 20 80C20 113.137 46.8629 140 80 140Z" fill="url(#paint0_linear_37_257)"/>
<path fill-rule="evenodd" clip-rule="evenodd" d="M20.481 87.6342C33.0327 84.1779 47.2779 84.8385 63.2165 89.6161C90.9609 97.9325 111.392 73.9326 134.765 89.6161C136.145 90.5422 137.456 91.5032 138.696 92.499C132.946 119.637 108.851 140 79.9999 140C49.449 140 24.2311 117.167 20.481 87.6342H20.481Z" fill="url(#paint1_linear_37_257)"/>
<path fill-rule="evenodd" clip-rule="evenodd" d="M23.6289 100.597C34.0583 93.7199 44.6557 92.0883 55.4209 95.7025C72.1091 101.305 81.3078 88.1473 103.95 101.305C119.704 110.461 128.071 99.0158 136.502 100.237C128.198 123.417 106.036 140 80.0001 140C54.0995 140 32.0319 123.589 23.6289 100.597L23.6289 100.597Z" fill="url(#paint2_linear_37_257)"/>
<path fill-rule="evenodd" clip-rule="evenodd" d="M22.7061 97.869C54.7413 93.7759 52.9239 106.309 86.707 110.641C107.768 113.341 124.927 106.727 134.989 104.042C125.721 125.211 104.588 140 80.0002 140C53.0862 140 30.3111 122.279 22.7061 97.869Z" fill="url(#paint3_linear_37_257)"/>
<path fill-rule="evenodd" clip-rule="evenodd" d="M42.1616 126.567C40.9883 125.612 39.8517 124.614 38.7544 123.575C42.1989 122.086 52.9592 121 65.7 121C81.2192 121 93.8 122.612 93.8 124.6C93.8 126.588 81.2192 128.2 65.7 128.2C55.8468 128.2 47.1781 127.55 42.1616 126.567Z" fill="url(#paint4_linear_37_257)"/>
<path opacity="0.2" d="M126.8 62.9999C137.735 62.9999 146.6 54.1351 146.6 43.1999C146.6 32.2647 137.735 23.3999 126.8 23.3999C115.865 23.3999 107 32.2647 107 43.1999C107 54.1351 115.865 62.9999 126.8 62.9999Z" fill="url(#paint5_linear_37_257)"/>
<path fill-rule="evenodd" clip-rule="evenodd" d="M20.5527 71.8211C24.5419 42.5532 49.6371 20 79.9999 20C91.8139 20 102.83 23.4144 112.116 29.3102C106.138 32.6159 101.88 37.2136 99.3413 43.1031C93.3711 56.9539 82.6403 64.256 62.3225 59.6533C46.0691 55.9714 30.0008 61.1485 20.5527 71.8211Z" fill="url(#paint6_linear_37_257)"/>
<path fill-rule="evenodd" clip-rule="evenodd" d="M15.0361 69.1837C15.7081 70.0307 16.6911 70.711 17.9851 71.2247C19.2791 71.7384 20.1773 71.7384 20.6794 71.2247C20.6982 72.138 21.2158 72.8001 22.2324 73.2112C23.7571 73.8278 37.1737 78.5233 39.3154 76.5767C39.3793 77.452 40.6315 78.1595 43.0719 78.6991C46.7325 79.5086 62.4554 82.7554 63.5962 80.7273C64.0654 81.7665 65.1081 82.3807 66.7243 82.5696C69.1487 82.8531 81.4665 84.4054 82.8844 82.2988C83.2738 82.8562 83.9118 83.1348 84.7984 83.1348C86.1282 83.1348 88.9659 83.1194 89.5314 82.5696C89.9084 82.2032 86.5204 79.1548 79.3676 73.4246L61.528 65.0802L30.8888 61.2236L15.0361 69.1837Z" fill="url(#paint7_linear_37_257)"/>
<path fill-rule="evenodd" clip-rule="evenodd" d="M55.2605 52.7597C55.3232 52.3224 55.7286 52.0187 56.166 52.0815C56.6033 52.1442 56.907 52.5496 56.8442 52.987L55.7921 60.3209C55.7293 60.7582 55.3239 61.0619 54.8866 60.9992C54.4492 60.9364 54.1455 60.531 54.2083 60.0937L55.2605 52.7597ZM52.2396 70.5326C52.3158 70.0973 52.7304 69.8063 53.1656 69.8825C53.6008 69.9587 53.8919 70.3732 53.8157 70.8084L44.3484 124.894C44.2722 125.329 43.8577 125.62 43.4224 125.544C42.9872 125.468 42.6962 125.053 42.7724 124.618L52.2396 70.5326Z" fill="url(#paint8_linear_37_257)"/>
<path fill-rule="evenodd" clip-rule="evenodd" d="M15.5827 66.9013C14.8589 67.5843 14.4971 68.2615 14.4971 68.9329C14.4971 69.9401 14.6727 69.83 17.3953 69.83C19.2104 69.83 23.7388 69.7475 30.9806 69.5825C32.4179 69.5307 33.4779 68.4901 34.1606 66.4608C34.4376 69.241 35.6409 70.7394 37.7705 70.956C40.965 71.281 51.8611 71.6692 59.4807 73.7432C67.1003 75.8173 70.0436 77.8886 71.6778 73.0886C72.0008 75.1307 72.9923 76.5087 74.6524 77.2225C76.3126 77.9364 80.9101 79.7055 88.4449 82.5297C89.0564 82.8361 89.5026 82.717 89.7835 82.1725C90.2048 81.3556 88.687 78.4142 87.0518 76.244C85.4165 74.0739 79.8941 62.4074 64.1704 57.4897C62.63 55.7394 60.6897 54.8642 58.3493 54.8642C54.8387 54.8642 50.9378 52.1508 46.9107 54.3127C41.3082 54.058 36.3918 54.9282 32.1616 56.9232C27.9313 58.9182 22.405 62.2443 15.5827 66.9013Z" fill="url(#paint9_linear_37_257)"/>
<path fill-rule="evenodd" clip-rule="evenodd" d="M67.2684 122.362L62.3335 114.936C62.1848 114.712 62.2464 114.411 62.4711 114.263C62.6957 114.115 62.9983 114.176 63.1469 114.4L68.0818 121.826C68.2305 122.05 68.1689 122.351 67.9443 122.499C67.7197 122.647 67.4171 122.586 67.2684 122.362Z" fill="url(#paint10_linear_37_257)"/>
<path fill-rule="evenodd" clip-rule="evenodd" d="M56.7559 125.376C56.5748 125.574 56.2663 125.589 56.067 125.408C55.8676 125.228 55.8528 124.921 56.034 124.722L66.4027 113.358C66.5838 113.159 66.8922 113.145 67.0916 113.325C67.291 113.505 67.3057 113.813 67.1246 114.011L56.7559 125.376Z" fill="url(#paint11_linear_37_257)"/>
<path fill-rule="evenodd" clip-rule="evenodd" d="M70.5287 113.925H82.4331C81.4573 116.99 79.6559 118.478 77.0288 118.389C77.0288 118.389 72.6653 118.389 63.9385 118.389L70.5287 113.925Z" fill="url(#paint12_linear_37_257)"/>
<path fill-rule="evenodd" clip-rule="evenodd" d="M54.9526 101.841H68.877C70.1114 111.505 72.8288 117.02 77.0292 118.389H63.9389C61.1382 118.05 59.0989 116.427 57.8207 113.519C56.5425 110.612 55.5865 106.719 54.9526 101.841Z" fill="url(#paint13_linear_37_257)"/>
<path fill-rule="evenodd" clip-rule="evenodd" d="M68.3868 102.738C68.2397 102.514 68.3034 102.213 68.5291 102.066C68.7547 101.92 69.0569 101.983 69.204 102.208L82.2227 122.099C82.3698 122.323 82.3061 122.624 82.0805 122.771C81.8548 122.917 81.5526 122.854 81.4056 122.629L68.3868 102.738Z" fill="url(#paint14_linear_37_257)"/>
<path fill-rule="evenodd" clip-rule="evenodd" d="M72.0181 125.44C71.837 125.639 71.5285 125.654 71.3292 125.473C71.1298 125.293 71.115 124.986 71.2962 124.787L81.6649 113.423C81.846 113.224 82.1545 113.21 82.3538 113.39C82.5532 113.57 82.5679 113.877 82.3868 114.076L72.0181 125.44Z" fill="url(#paint15_linear_37_257)"/>
<path opacity="0.2" d="M126.8 62.9999C137.735 62.9999 146.6 54.1351 146.6 43.1999C146.6 32.2647 137.735 23.3999 126.8 23.3999C115.865 23.3999 107 32.2647 107 43.1999C107 54.1351 115.865 62.9999 126.8 62.9999Z" fill="url(#paint16_linear_37_257)"/>
<path d="M126.8 57.2002C134.532 57.2002 140.8 50.9322 140.8 43.2002C140.8 35.4682 134.532 29.2002 126.8 29.2002C119.068 29.2002 112.8 35.4682 112.8 43.2002C112.8 50.9322 119.068 57.2002 126.8 57.2002Z" fill="url(#paint17_linear_37_257)"/>
<defs>
<linearGradient id="paint0_linear_37_257" x1="74.1709" y1="33.6988" x2="38.2026" y2="80" gradientUnits="userSpaceOnUse">
<stop stop-color="#C1FFF7"/>
<stop offset="1" stop-color="#93E9DE"/>
</linearGradient>
<linearGradient id="paint1_linear_37_257" x1="94.2461" y1="106.308" x2="82.2993" y2="122.669" gradientUnits="userSpaceOnUse">
<stop stop-color="#5A93EA"/>
<stop offset="1" stop-color="#3768B4"/>
</linearGradient>
<linearGradient id="paint2_linear_37_257" x1="73.1577" y1="111.78" x2="63.7519" y2="125.277" gradientUnits="userSpaceOnUse">
<stop stop-color="#5A93EA"/>
<stop offset="1" stop-color="#3768B4"/>
</linearGradient>
<linearGradient id="paint3_linear_37_257" x1="78.8476" y1="115.389" x2="77.0852" y2="121.703" gradientUnits="userSpaceOnUse">
<stop stop-color="#F9BB49"/>
<stop offset="1" stop-color="#F08523"/>
</linearGradient>
<linearGradient id="paint4_linear_37_257" x1="57.5646" y1="128.2" x2="57.5646" y2="121" gradientUnits="userSpaceOnUse">
<stop stop-color="#E87E1E" stop-opacity="0"/>
<stop offset="1" stop-color="#F07023"/>
</linearGradient>
<linearGradient id="paint5_linear_37_257" x1="126.8" y1="23.3999" x2="123.811" y2="51.3991" gradientUnits="userSpaceOnUse">
<stop stop-color="#F9BB49"/>
<stop offset="1" stop-color="#F08523"/>
</linearGradient>
<linearGradient id="paint6_linear_37_257" x1="72.43" y1="49.2226" x2="61.0498" y2="29.9879" gradientUnits="userSpaceOnUse">
<stop stop-color="#D3FFFA"/>
<stop offset="1" stop-color="#B7FFF6"/>
</linearGradient>
<linearGradient id="paint7_linear_37_257" x1="51.4072" y1="72.9073" x2="51.7961" y2="70.7088" gradientUnits="userSpaceOnUse">
<stop stop-color="#5A93EA"/>
<stop offset="1" stop-color="#3768B4"/>
</linearGradient>
<linearGradient id="paint8_linear_37_257" x1="49.7677" y1="102.44" x2="46.1765" y2="47.7892" gradientUnits="userSpaceOnUse">
<stop stop-color="#DB593D"/>
<stop offset="1" stop-color="#F88461"/>
</linearGradient>
<linearGradient id="paint9_linear_37_257" x1="54.4201" y1="65.5578" x2="53.3906" y2="71.0542" gradientUnits="userSpaceOnUse">
<stop stop-color="#77EBFF"/>
<stop offset="1" stop-color="#4D86DE"/>
</linearGradient>
<linearGradient id="paint10_linear_37_257" x1="64.9892" y1="119.938" x2="63.5187" y2="113.841" gradientUnits="userSpaceOnUse">
<stop stop-color="#DB593D"/>
<stop offset="1" stop-color="#F88461"/>
</linearGradient>
<linearGradient id="paint11_linear_37_257" x1="60.8634" y1="121.654" x2="58.0009" y2="112.57" gradientUnits="userSpaceOnUse">
<stop stop-color="#DB593D"/>
<stop offset="1" stop-color="#F88461"/>
</linearGradient>
<linearGradient id="paint12_linear_37_257" x1="72.9648" y1="116.239" x2="73.0487" y2="115.853" gradientUnits="userSpaceOnUse">
<stop stop-color="#5A93EA"/>
<stop offset="1" stop-color="#3768B4"/>
</linearGradient>
<linearGradient id="paint13_linear_37_257" x1="66.6484" y1="104.765" x2="65.6956" y2="114.597" gradientUnits="userSpaceOnUse">
<stop stop-color="#77EBFF"/>
<stop offset="1" stop-color="#4D86DE"/>
</linearGradient>
<linearGradient id="paint14_linear_37_257" x1="74.8349" y1="116.287" x2="71.3526" y2="101.137" gradientUnits="userSpaceOnUse">
<stop stop-color="#DB593D"/>
<stop offset="1" stop-color="#F88461"/>
</linearGradient>
<linearGradient id="paint15_linear_37_257" x1="76.1256" y1="121.719" x2="73.2631" y2="112.635" gradientUnits="userSpaceOnUse">
<stop stop-color="#DB593D"/>
<stop offset="1" stop-color="#F88461"/>
</linearGradient>
<linearGradient id="paint16_linear_37_257" x1="126.8" y1="23.3999" x2="123.811" y2="51.3991" gradientUnits="userSpaceOnUse">
<stop stop-color="#F9BB49"/>
<stop offset="1" stop-color="#F08523"/>
</linearGradient>
<linearGradient id="paint17_linear_37_257" x1="126.8" y1="29.2002" x2="124.686" y2="48.9976" gradientUnits="userSpaceOnUse">
<stop stop-color="#F9BB49"/>
<stop offset="1" stop-color="#F08523"/>
</linearGradient>
</defs>
</svg>
