<svg width="160" height="160" viewBox="0 0 160 160" fill="none" xmlns="http://www.w3.org/2000/svg">
<path d="M80 140C113.137 140 140 113.137 140 80C140 46.8629 113.137 20 80 20C46.8629 20 20 46.8629 20 80C20 113.137 46.8629 140 80 140Z" fill="url(#paint0_linear_37_283)"/>
<path fill-rule="evenodd" clip-rule="evenodd" d="M139.963 82.1219C119.922 80.6455 98.9017 81.1588 76.9028 83.6618C54.9648 86.1579 36.8062 90.5866 22.4269 96.9478C20.8474 91.5735 20 85.8858 20 80.0003C20 75.1487 20.5758 70.4316 21.6629 65.9137C26.3531 62.5945 32.7834 64.5626 37.741 69.3003C45.3999 76.6194 51.4314 80.2155 62.2881 69.3003C73.1448 58.385 79.6346 60.9094 86.1017 69.3003C92.5687 77.6912 98.6641 75.5628 112.274 73.5242C120.437 72.3014 129.679 74.5746 139.999 80.3436C139.996 80.9385 139.984 81.5313 139.963 82.1219V82.1219Z" fill="url(#paint1_linear_37_283)"/>
<path fill-rule="evenodd" clip-rule="evenodd" d="M20.0103 81.1089C25.5219 74.4551 32.2511 72.5756 40.198 75.4704C56.2963 81.3346 57.6983 80.1411 64.5134 75.4704C71.3286 70.7998 71.0374 67.7726 80.0002 73.1624C88.963 78.5523 95.9244 81.4915 103.587 78.852C111.249 76.2124 120.572 71.2553 129.461 81.2222C109.086 80.5396 91.4147 81.4942 76.4482 84.0859C59.3946 87.0391 35.1699 97.8404 24.5096 102.862C21.7364 96.1385 20.1497 88.8005 20.0103 81.1089Z" fill="url(#paint2_linear_37_283)"/>
<path fill-rule="evenodd" clip-rule="evenodd" d="M22.4282 96.9513C51.2289 82.6199 90.4101 77.588 139.972 81.8555C138.992 114.134 112.517 140 80.0002 140C52.7501 140 29.7428 121.834 22.4282 96.9513Z" fill="url(#paint3_linear_37_283)"/>
<path fill-rule="evenodd" clip-rule="evenodd" d="M22.3838 96.8001C46.9115 83.8518 80.2072 78.5159 122.271 80.7923C115.871 80.7923 91.43 80.7923 76.4067 88.6489C61.3835 96.5056 64.7798 101.518 75.4535 105.902C86.1271 110.286 79.5847 117.186 75.4535 117.186C72.6993 117.186 67.7085 116.324 60.481 114.598C52.5302 113.172 43.6011 114.358 33.6939 118.157C28.5812 111.959 24.6886 104.718 22.3838 96.8001Z" fill="url(#paint4_linear_37_283)"/>
<path fill-rule="evenodd" clip-rule="evenodd" d="M33.104 117.43C46.3658 111.777 58.7264 111.139 70.1858 115.514C94.1826 124.678 106.329 107.651 112.416 93.5383C117.102 82.6729 132.944 80.9996 139.987 81.2692C139.312 113.82 112.713 140 80.0002 140C61.0202 140 44.0985 131.187 33.104 117.43H33.104Z" fill="url(#paint5_linear_37_283)"/>
<path fill-rule="evenodd" clip-rule="evenodd" d="M69.4405 139.074C69.3543 139.059 69.2682 139.043 69.1821 139.028V139.016C69.2686 139.036 69.3547 139.055 69.4405 139.074H69.4405Z" fill="url(#paint6_linear_37_283)"/>
<path fill-rule="evenodd" clip-rule="evenodd" d="M77.2583 139.938C80.069 139.812 82.1432 139.037 83.4809 137.613C87.0787 133.784 78.2629 124.684 91.9528 123.93C105.643 123.176 122.784 124.864 117.475 113.589C112.169 102.321 118.632 81.3659 139.985 81.3413C139.272 113.859 112.689 140 80.0001 140C79.0812 140 78.1671 139.979 77.2583 139.938Z" fill="url(#paint7_linear_37_283)"/>
<path fill-rule="evenodd" clip-rule="evenodd" d="M75.269 62.231C76.7237 57.8949 78.8337 53.969 80.0002 50.8043C82.8492 43.0753 89.4504 41.7873 89.4504 35.1569C89.4504 28.5264 95.1973 27.1765 98.2941 21.4C101.391 15.6235 104.275 21.9762 107.63 27.1765C110.986 32.3767 114.677 31.8199 114.677 41.7873C114.677 51.7546 121.619 51.8624 125.736 60.9158C127.987 65.8675 131.167 71.5995 135.276 78.1115C126.839 74.1533 119.171 72.6907 112.274 73.7239C98.6643 75.7625 92.5689 77.8908 86.1019 69.5C82.7067 65.0948 79.3053 62.3066 75.269 62.231Z" fill="url(#paint8_linear_37_283)"/>
<path fill-rule="evenodd" clip-rule="evenodd" d="M107.63 27.1768C110.986 32.377 114.677 31.8202 114.677 41.7876C114.677 51.7549 121.619 51.8627 125.735 60.9161C127.987 65.8678 131.167 71.5997 135.276 78.1118C126.839 74.1536 119.171 72.691 112.274 73.7242C98.6642 75.7628 95 65.6417 99.6439 61.6511C104.288 57.6605 113.111 51.33 109.175 47.0798C105.238 42.8295 106.086 39.5196 107.63 35.9283C108.279 34.4089 108.604 32.9442 108.604 31.5342C108.604 29.419 107.63 27.1768 107.63 27.1768Z" fill="url(#paint9_linear_37_283)"/>
<path fill-rule="evenodd" clip-rule="evenodd" d="M113.352 73.5834C112.991 73.6236 112.631 73.6704 112.274 73.724C98.6639 75.7626 92.5685 77.8909 86.1015 69.5C79.6344 61.1091 73.1446 58.5848 62.2879 69.5C51.4312 80.4153 45.3997 76.8192 37.7408 69.5C35.3596 67.2245 32.6387 65.5879 29.9341 64.8692C31.0985 62.6663 32.2332 60.3515 32.8219 58.0011C34.3292 51.9833 34.0231 48.4399 38.8631 45.9782C43.7031 43.5165 45.1665 41.281 45.1665 34.2119C45.1665 27.1428 53.7846 27.3128 52.7595 20.4859C51.7343 13.659 56.4103 13.8219 60.7413 9.56166C65.0722 5.30139 70.0755 17.127 74.0226 20.4859C77.9697 23.8448 74.7812 26.9357 78.391 29.5734C82.0009 32.2112 82.0772 32.079 83.3667 37.8295C84.2264 41.6633 86.3976 44.3795 89.8802 45.9782C91.5746 46.7066 94.2386 47.0708 97.8722 47.0708C103.323 47.0708 102.312 52.6802 102.312 58.0011C102.312 63.322 107.645 65.7842 111.652 70.7727C112.394 71.6976 112.961 72.6345 113.352 73.5834H113.352Z" fill="url(#paint10_linear_37_283)"/>
<path fill-rule="evenodd" clip-rule="evenodd" d="M56.8621 15.8411C53.6943 19.4591 63.8332 24.3752 58.9885 32.4339C54.1437 40.4927 71.1071 45.9781 61.8816 53.9558C55.7313 59.2743 55.8667 64.4557 62.2879 69.4999C51.4312 80.4151 45.3997 76.819 37.7408 69.4999C35.3596 67.2244 32.6387 65.5878 29.9341 64.869C31.0985 62.6661 32.2332 60.3513 32.8219 58.001C34.3292 51.9832 34.0231 48.4398 38.8631 45.9781C43.7031 43.5164 45.1665 41.2809 45.1665 34.2118C45.1665 27.1427 53.7846 27.3127 52.7595 20.4858C51.7343 13.6589 56.4103 13.8218 60.7413 9.56152C60.267 11.3358 58.9739 13.429 56.8621 15.8411Z" fill="url(#paint11_linear_37_283)"/>
<path fill-rule="evenodd" clip-rule="evenodd" d="M45.6278 80.9486C41.6748 81.7398 39.4828 80.8485 39.052 78.2746C38.4056 74.4137 44.0558 72.3558 41.2307 68.3405C38.4056 64.3251 43.5011 60.979 42.9376 57.1676C42.3741 53.3563 44.143 51.6262 47.9038 59.9546C51.6645 68.2831 45.9264 67.4115 49.4558 73.4145C51.8087 77.4166 50.5327 79.9279 45.6278 80.9486Z" fill="url(#paint12_linear_37_283)"/>
<path fill-rule="evenodd" clip-rule="evenodd" d="M44.8743 63.5434C46.2666 65.9488 45.0821 67.8773 44.6489 69.3154C44.2157 70.7536 44.5216 73.1 44.8743 74.221C45.227 75.3421 44.795 77.9099 44.6489 78.8625C44.5028 79.8152 44.9622 81.0718 44.6489 81.115C41.3115 81.5743 39.4459 80.6275 39.052 78.2745C38.4056 74.4136 44.0558 72.3557 41.2307 68.3403C38.4056 64.325 43.5011 60.9788 42.9376 57.1675C43.3005 59.8145 43.9461 61.9398 44.8743 63.5434Z" fill="url(#paint13_linear_37_283)"/>
<path fill-rule="evenodd" clip-rule="evenodd" d="M42.958 88.33C44.2534 82.7827 44.4392 79.4333 43.5153 78.2817C42.1295 76.5544 41.9353 74.8469 42.958 76.3242C43.9808 77.8015 45.0501 78.2389 44.367 74.089C43.6838 69.939 45.8118 65.508 45.4486 67.179C45.0855 68.8501 44.2466 71.6102 45.1183 74.089C45.9901 76.5677 43.8229 78.8568 46.774 77.7116C49.7251 76.5664 47.8459 77.7257 46.4706 78.8387C45.0953 79.9517 45.0689 79.9613 45.6301 82.6913C46.0043 84.5113 46.1243 86.0871 45.9901 87.4188L42.958 88.33Z" fill="url(#paint14_linear_37_283)"/>
<path fill-rule="evenodd" clip-rule="evenodd" d="M69.628 78.0343C67.1062 78.5404 65.7079 77.9704 65.433 76.3243C65.0207 73.8551 68.6252 72.539 66.823 69.971C65.0207 67.4031 68.2713 65.2631 67.9118 62.8256C67.5523 60.3881 68.6808 59.2817 71.0799 64.608C73.479 69.9343 69.8185 69.3769 72.07 73.2161C73.571 75.7755 72.757 77.3816 69.628 78.0343Z" fill="url(#paint15_linear_37_283)"/>
<path fill-rule="evenodd" clip-rule="evenodd" d="M69.1473 66.9033C70.0355 68.4417 69.2798 69.675 69.0035 70.5947C68.7272 71.5145 68.9223 73.0151 69.1473 73.732C69.3723 74.449 69.0967 76.0912 69.0035 76.7004C68.9103 77.3097 69.2034 78.1134 69.0035 78.1409C66.8745 78.4347 65.6843 77.8292 65.433 76.3243C65.0207 73.8552 68.6252 72.5391 66.823 69.9711C65.0207 67.4031 68.2713 65.2632 67.9118 62.8257C68.1434 64.5185 68.5552 65.8777 69.1473 66.9033Z" fill="url(#paint16_linear_37_283)"/>
<path fill-rule="evenodd" clip-rule="evenodd" d="M67.9246 82.7552C68.751 79.2074 68.8695 77.0654 68.2801 76.3289C67.3961 75.2242 67.2722 74.1322 67.9246 75.077C68.5771 76.0218 69.2593 76.3015 68.8234 73.6475C68.3876 70.9935 69.7452 68.1597 69.5135 69.2284C69.2818 70.2971 68.7466 72.0623 69.3028 73.6475C69.8589 75.2327 68.4763 76.6967 70.359 75.9643C72.2416 75.2319 71.0427 75.9733 70.1654 76.6851C69.2881 77.3969 69.2712 77.4031 69.6293 79.149C69.8679 80.3129 69.9499 81.4196 69.8751 82.469L67.9246 82.7552Z" fill="url(#paint17_linear_37_283)"/>
<path d="M64.8339 83.1104L65.0115 83.2022C60.4017 92.1225 57.3413 97.6822 55.827 99.8864L55.6621 99.7732C57.1699 97.5785 60.2283 92.0225 64.8339 83.1104Z" fill="#123874"/>
<path fill-rule="evenodd" clip-rule="evenodd" d="M86.0747 96.873L88.4224 97.5629C86.4156 98.4816 84.9936 99.4424 84.1565 100.445C79.8393 101.081 76.1479 101.955 73.0823 103.067C65.6551 102.36 60.5279 100.904 57.7007 98.6978L64.7028 89.166L86.0747 96.873Z" fill="url(#paint18_linear_37_283)"/>
<path fill-rule="evenodd" clip-rule="evenodd" d="M83.7125 99.4545C85.5151 98.1862 87.0933 97.552 88.4472 97.552C85.014 93.5637 82.0028 89.1798 79.4135 84.4004L71.1602 88.1704L77.715 98.6376L80.6518 97.904H82.7278L83.7125 99.4545Z" fill="url(#paint19_linear_37_283)"/>
<path fill-rule="evenodd" clip-rule="evenodd" d="M57.6992 98.5911C61.3777 100.561 66.4684 101.747 72.9714 102.15C76.159 100.808 78.977 100.137 81.4253 100.137C80.2123 96.6974 79.5341 91.4254 79.3907 84.3208C75.9033 84.4488 73.0778 84.4488 70.9142 84.3208C68.7507 84.1929 66.7418 83.7941 64.8878 83.1245C63.6768 86.6958 62.4708 89.6038 61.2698 91.8484C60.0688 94.0931 58.8786 96.3407 57.6992 98.5911Z" fill="url(#paint20_linear_37_283)"/>
<path fill-rule="evenodd" clip-rule="evenodd" d="M57.6992 98.5911C61.3777 100.561 66.4684 101.747 72.9714 102.15C75.5695 96.8119 77.7093 90.869 79.3907 84.3208C75.9033 84.4488 73.0778 84.4488 70.9142 84.3208C68.7507 84.1929 66.7418 83.7941 64.8878 83.1245C63.6768 86.6958 62.4708 89.6038 61.2698 91.8484C60.0688 94.0931 58.8786 96.3407 57.6992 98.5911Z" fill="url(#paint21_linear_37_283)"/>
<path fill-rule="evenodd" clip-rule="evenodd" d="M83.7126 99.4545C85.5152 98.1862 87.0934 97.552 88.4473 97.552C85.0141 93.5637 82.0028 89.1798 79.4136 84.4004C79.8982 88.0076 80.3421 90.6327 80.7454 92.2757C81.0786 93.6335 81.7395 95.5096 82.7279 97.904L83.7126 99.4545Z" fill="url(#paint22_linear_37_283)"/>
<path d="M73.8884 104.38L73.708 104.294C74.9939 101.61 76.8691 95.0128 79.3297 84.5118L79.3821 84.2881L79.5101 84.4789C83.5849 90.5525 87.4388 95.0227 91.0702 97.8891L90.9463 98.0461C87.3345 95.1951 83.5103 90.7734 79.4721 84.7807C77.0337 95.1673 75.1737 101.697 73.8884 104.38Z" fill="#123874"/>
<path fill-rule="evenodd" clip-rule="evenodd" d="M91.5193 97.3361L90.9493 98.046L90.9087 97.9368L91.2345 97.2017L91.5193 97.3361Z" fill="#123874"/>
<path fill-rule="evenodd" clip-rule="evenodd" d="M73.1265 104.101L73.3178 103.823L73.9261 104.27L73.8855 104.379L73.1265 104.101Z" fill="#123874"/>
<path fill-rule="evenodd" clip-rule="evenodd" d="M55.0869 99.5292L55.2696 99.2529L55.8607 99.7822L55.827 99.8844L55.0869 99.5292Z" fill="#123874"/>
<defs>
<linearGradient id="paint0_linear_37_283" x1="76.837" y1="69.5152" x2="96.1639" y2="21.8848" gradientUnits="userSpaceOnUse">
<stop stop-color="#D5EDF3"/>
<stop offset="1" stop-color="#A2DBD8"/>
</linearGradient>
<linearGradient id="paint1_linear_37_283" x1="99.4038" y1="78.3868" x2="68.0315" y2="103.704" gradientUnits="userSpaceOnUse">
<stop stop-color="#2FAC6D"/>
<stop offset="1" stop-color="#007846"/>
</linearGradient>
<linearGradient id="paint2_linear_37_283" x1="127.55" y1="85.1353" x2="53.3675" y2="111.194" gradientUnits="userSpaceOnUse">
<stop stop-color="#2FAC6D"/>
<stop offset="1" stop-color="#007846"/>
</linearGradient>
<linearGradient id="paint3_linear_37_283" x1="136.193" y1="102.527" x2="71.1387" y2="136.161" gradientUnits="userSpaceOnUse">
<stop stop-color="#68C179"/>
<stop offset="1" stop-color="#25A062"/>
</linearGradient>
<linearGradient id="paint4_linear_37_283" x1="113.925" y1="96.7319" x2="76.2446" y2="114.581" gradientUnits="userSpaceOnUse">
<stop stop-color="#68C179"/>
<stop offset="1" stop-color="#25A062"/>
</linearGradient>
<linearGradient id="paint5_linear_37_283" x1="89.7286" y1="100.402" x2="85.4268" y2="122.409" gradientUnits="userSpaceOnUse">
<stop stop-color="#77EBFF"/>
<stop offset="1" stop-color="#4D86DE"/>
</linearGradient>
<linearGradient id="paint6_linear_37_283" x1="69.4049" y1="139.031" x2="69.3838" y2="139.119" gradientUnits="userSpaceOnUse">
<stop stop-color="#91F6FF"/>
<stop offset="1" stop-color="#4D86DE"/>
</linearGradient>
<linearGradient id="paint7_linear_37_283" x1="131.335" y1="90.5936" x2="85.4072" y2="157.544" gradientUnits="userSpaceOnUse">
<stop stop-color="#91F6FF"/>
<stop offset="1" stop-color="#4D86DE"/>
</linearGradient>
<linearGradient id="paint8_linear_37_283" x1="107.029" y1="29.0879" x2="90.6606" y2="77.303" gradientUnits="userSpaceOnUse">
<stop stop-color="#30A0DE"/>
<stop offset="1" stop-color="#194383"/>
</linearGradient>
<linearGradient id="paint9_linear_37_283" x1="109.17" y1="97.922" x2="138.958" y2="-15.4174" gradientUnits="userSpaceOnUse">
<stop stop-color="#30A0DE"/>
<stop offset="1" stop-color="#194383"/>
</linearGradient>
<linearGradient id="paint10_linear_37_283" x1="74.0845" y1="27.2275" x2="62.3351" y2="74.0876" gradientUnits="userSpaceOnUse">
<stop stop-color="#30A0DE"/>
<stop offset="1" stop-color="#194383"/>
</linearGradient>
<linearGradient id="paint11_linear_37_283" x1="49.1428" y1="28.179" x2="36.5896" y2="86.1442" gradientUnits="userSpaceOnUse">
<stop stop-color="#30A0DE"/>
<stop offset="1" stop-color="#194383"/>
</linearGradient>
<linearGradient id="paint12_linear_37_283" x1="44.8" y1="54" x2="44.8" y2="74.7031" gradientUnits="userSpaceOnUse">
<stop stop-color="#68C179"/>
<stop offset="1" stop-color="#1FA063"/>
</linearGradient>
<linearGradient id="paint13_linear_37_283" x1="42.3244" y1="58.8234" x2="40.6183" y2="81.1066" gradientUnits="userSpaceOnUse">
<stop stop-color="#68C179"/>
<stop offset="1" stop-color="#1FA063"/>
</linearGradient>
<linearGradient id="paint14_linear_37_283" x1="45.2807" y1="91.5299" x2="45.8484" y2="75.2972" gradientUnits="userSpaceOnUse">
<stop stop-color="#006239"/>
<stop offset="1" stop-color="#007846"/>
</linearGradient>
<linearGradient id="paint15_linear_37_283" x1="69.0999" y1="60.7998" x2="69.0999" y2="74.0402" gradientUnits="userSpaceOnUse">
<stop stop-color="#68C179"/>
<stop offset="1" stop-color="#1FA063"/>
</linearGradient>
<linearGradient id="paint16_linear_37_283" x1="67.5205" y1="63.8847" x2="66.4321" y2="78.1359" gradientUnits="userSpaceOnUse">
<stop stop-color="#68C179"/>
<stop offset="1" stop-color="#1FA063"/>
</linearGradient>
<linearGradient id="paint17_linear_37_283" x1="69.3597" y1="91.3675" x2="70.3178" y2="75.9309" gradientUnits="userSpaceOnUse">
<stop stop-color="#006239"/>
<stop offset="1" stop-color="#008D52"/>
</linearGradient>
<linearGradient id="paint18_linear_37_283" x1="120.745" y1="95.3132" x2="68.6511" y2="104.92" gradientUnits="userSpaceOnUse">
<stop stop-color="#68C179"/>
<stop offset="1" stop-color="#139553"/>
</linearGradient>
<linearGradient id="paint19_linear_37_283" x1="79.8037" y1="86.2193" x2="80.6644" y2="93.1626" gradientUnits="userSpaceOnUse">
<stop stop-color="#F9BB49"/>
<stop offset="1" stop-color="#CD6709"/>
</linearGradient>
<linearGradient id="paint20_linear_37_283" x1="71.4311" y1="84.1681" x2="75.7578" y2="102.379" gradientUnits="userSpaceOnUse">
<stop stop-color="#F9BB49"/>
<stop offset="1" stop-color="#F08523"/>
</linearGradient>
<linearGradient id="paint21_linear_37_283" x1="68.545" y1="85.3194" x2="67.28" y2="95.7126" gradientUnits="userSpaceOnUse">
<stop stop-color="#F9BB49"/>
<stop offset="1" stop-color="#F08523"/>
</linearGradient>
<linearGradient id="paint22_linear_37_283" x1="83.9304" y1="84.4004" x2="83.2504" y2="95.0166" gradientUnits="userSpaceOnUse">
<stop stop-color="#F9BB49"/>
<stop offset="1" stop-color="#F08523"/>
</linearGradient>
</defs>
</svg>
